<svg xmlns="http://www.w3.org/2000/svg" version="1.1" xmlns:xlink="http://www.w3.org/1999/xlink" xmlns:svgjs="http://svgjs.dev/svgjs" width="1500" height="390" viewBox="0 0 1500 390"><g transform="matrix(1,0,0,1,-0.9090909090909918,-0.8476476885815316)"><svg viewBox="0 0 396 103" data-background-color="#d2d6dc" preserveAspectRatio="xMidYMid meet" height="390" width="1500" xmlns="http://www.w3.org/2000/svg" xmlns:xlink="http://www.w3.org/1999/xlink"><g id="tight-bounds" transform="matrix(1,0,0,1,0.2400000000000091,0.22498488946951056)"><svg viewBox="0 0 395.52 102.55003022106098" height="102.55003022106098" width="395.52"><g><svg viewBox="0 0 660.5771638224286 171.27378669430826" height="102.55003022106098" width="395.52"><g transform="matrix(1,0,0,1,265.0571638224286,41.95222437947293)"><svg viewBox="0 0 395.52 87.3693379353624" height="87.3693379353624" width="395.52"><g id="textblocktransform"><svg viewBox="0 0 395.52 87.3693379353624" height="87.3693379353624" width="395.52" id="textblock"><g><svg viewBox="0 0 395.52 87.3693379353624" height="87.3693379353624" width="395.52"><g transform="matrix(1,0,0,1,0,0)"><svg width="395.52" viewBox="2.35 -35 159.34 35.2" height="87.3693379353624" data-palette-color="#6b7280"><path d="M5-33.95L2.35-34.25 2.4-35 14.55-35Q19.7-35 22.5-32.75 25.3-30.5 25.3-26.05L25.3-26.05Q25.3-23.15 23.08-20 20.85-16.85 18.9-15.95L18.9-15.95 28.15-0.9 30.6-0.75Q30.6-0.7 30.55 0L30.55 0 25.1 0.05 15.6-15.35 8.95-15.35 8.95-0.95 12.45-0.75Q12.45-0.7 12.4 0L12.4 0 2.35 0.05 2.4-0.65 5-1Q5.35-1.05 5.55-1.45L5.55-1.45 5.55-33.45Q5.4-33.9 5-33.95L5-33.95ZM14.3-34.25L14.3-34.25 8.95-34.25 8.95-16.1 17.5-16.1Q20.1-19.05 21-21.33 21.9-23.6 21.9-25.75L21.9-25.75Q21.9-29.95 19.95-32.1 18-34.25 14.3-34.25ZM34.25-11.5L34.25-11.5Q34.25-0.7 42.65-0.7L42.65-0.7Q44.85-0.7 47.35-1.18 49.85-1.65 50.55-2.05L50.55-2.05 50.9-1.55Q49.75-0.8 47.12-0.3 44.5 0.2 42.32 0.2 40.15 0.2 38.42-0.25 36.7-0.7 34.9-1.85 33.1-3 32.05-5.45 31-7.9 31-11.45L31-11.45Q31-18.05 34.4-21.55L34.4-21.55Q37.95-25.2 42.65-25.2 47.35-25.2 49.82-22.6 52.3-20 52.3-15.3L52.3-15.3Q52.3-14.3 52.15-13.15L52.15-13.15 34.3-13.15Q34.25-12.6 34.25-11.5ZM49.35-15.65L49.35-15.65Q49.35-19.4 47.7-21.78 46.05-24.15 43.2-24.15L43.2-24.15Q39.5-24.15 36.95-20.9L36.95-20.9Q34.9-18.35 34.4-14.1L34.4-14.1 49.3-14.1Q49.35-14.65 49.35-15.65ZM65.84 0L55.8 0.05 55.84-0.65 58.45-1Q58.9-1.05 58.9-1.7L58.9-1.7 58.9-23.35Q58.8-23.75 58.59-23.75L58.59-23.75 55.55-23.85 55.59-24.55Q58.75-25 59.84-25L59.84-25Q61.84-25 62.09-23.25L62.09-23.25 62.15-23.25 62.15-22.2Q66.25-25 70-25.15L70-25.15Q73.65-25.15 75.55-23.7L75.55-23.7Q76.4-23.05 77.07-21.68 77.75-20.3 77.75-18.4L77.75-18.4 77.75-1 81.5-0.75Q81.5-0.7 81.45 0L81.45 0 71.45 0.05Q71.45-0.4 71.5-0.65L71.5-0.65 74.09-1Q74.5-1.05 74.5-1.7L74.5-1.7 74.5-17.15Q74.5-19.15 73.97-20.55 73.45-21.95 72.8-22.6 72.15-23.25 71.2-23.6L71.2-23.6Q70.09-24 68.9-24L68.9-24Q65.9-23.95 62.15-21.65L62.15-21.65 62.15-1 65.9-0.75Q65.9-0.7 65.84 0L65.84 0ZM94.94-0.95L94.94-0.95 96.89-1.05 97.04-0.55Q96.99-0.55 96.34-0.4L96.34-0.4Q94.84-0.05 92.99-0.05L92.99-0.05Q91.29-0.15 89.89-0.63 88.49-1.1 87.29-2.63 86.09-4.15 86.09-6.55L86.09-6.55 86.09-24.1 83.54-24.1 83.94-24.5 86.14-24.95 86.54-29.75 89.34-30 89.34-25 95.39-25 95.39-24.1 89.34-24.1 89.34-7.4Q89.34-3.6 90.94-2.27 92.54-0.95 94.94-0.95ZM103.59-33.95L100.94-34.25 100.99-35 107.59-35 119.54-9.65 131.29-35 137.89-35Q137.89-34.9 137.94-34.65 137.99-34.4 137.94-34.25L137.94-34.25 135.29-33.95Q134.79-33.9 134.69-33.3L134.69-33.3 134.69-0.95 138.39-0.75Q138.39-0.7 138.34 0L138.34 0 128.29 0.05 128.34-0.65 130.94-1Q131.44-1.05 131.54-1.6L131.54-1.6 131.54-33.2 120.14-8.55 119.14-6.55 117.99-6.55 105.34-33.25 105.34-1.05 111.04-0.75Q111.04-0.7 110.99 0L110.99 0 100.94 0.05 100.99-0.65 103.59-1Q104.09-1.05 104.19-1.65L104.19-1.65 104.19-33.3Q104.09-33.9 103.59-33.95L103.59-33.95ZM143.64-11.5L143.64-11.5Q143.64-0.7 152.04-0.7L152.04-0.7Q154.24-0.7 156.74-1.18 159.24-1.65 159.94-2.05L159.94-2.05 160.29-1.55Q159.14-0.8 156.51-0.3 153.89 0.2 151.71 0.2 149.54 0.2 147.81-0.25 146.09-0.7 144.29-1.85 142.49-3 141.44-5.45 140.39-7.9 140.39-11.45L140.39-11.45Q140.39-18.05 143.79-21.55L143.79-21.55Q147.34-25.2 152.04-25.2 156.74-25.2 159.21-22.6 161.69-20 161.69-15.3L161.69-15.3Q161.69-14.3 161.54-13.15L161.54-13.15 143.69-13.15Q143.64-12.6 143.64-11.5ZM158.74-15.65L158.74-15.65Q158.74-19.4 157.09-21.78 155.44-24.15 152.59-24.15L152.59-24.15Q148.89-24.15 146.34-20.9L146.34-20.9Q144.29-18.35 143.79-14.1L143.79-14.1 158.69-14.1Q158.74-14.65 158.74-15.65Z" opacity="1" transform="matrix(1,0,0,1,0,0)" fill="#6b7280" class="wordmark-text-0" data-fill-palette-color="primary" id="text-0"></path></svg></g></svg></g></svg></g></svg></g><g><svg viewBox="0 0 244.43135999999998 171.27378669430826" height="171.27378669430826" width="244.43135999999998"><g><svg xmlns="http://www.w3.org/2000/svg" xmlns:xlink="http://www.w3.org/1999/xlink" version="1.1" x="0" y="0" viewBox="0.873 15.552000000000003 98.27309096094224 68.8602494337665" enable-background="new 0 0 100 100" xml:space="preserve" height="171.27378669430826" width="244.43135999999998" class="icon-icon-0" data-fill-palette-color="accent" id="icon-0"><g fill="#6b7280" data-fill-palette-color="accent"><path d="M98.729 71.51L85.929 60.186A1.24 1.24 0 0 0 84.795 59.916L76.324 62.15C75.832 62.28 75.468 62.7 75.411 63.207L75.203 65.064 70.98 64.029 70.979 54.137 75.427 58.199 79.426 53.817 53.746 30.38 27.835 53.586 31.792 58.004 36.231 54.03 36.258 84.41 43.819 84.409V67.928H51.089V84.409L70.983 84.408 70.981 65.424 75.05 66.422 74.436 71.917C74.389 72.319 74.542 72.718 74.848 72.984L87.52 84.103A1.23 1.23 0 0 0 89.257 83.997L98.832 73.26C99.052 73.015 99.163 72.693 99.144 72.364A1.25 1.25 0 0 0 98.729 71.51M51.089 61.143H43.819V53.644H51.089zM63.651 61.143H56.38V53.644H63.651zM88.228 81.438L76.961 71.552 77.472 67.014 79.362 67.478A1.96 1.96 0 0 0 80.849 69.235 1.971 1.971 0 1 0 79.718 66.172L77.624 65.657 77.774 64.325 84.786 62.473 96.164 72.538z" fill="#6b7280" data-fill-palette-color="accent"></path></g><rect x="13.353" y="34.025" width="4.837" height="4.836" fill="#6b7280" data-fill-palette-color="accent"></rect><rect x="20.608" y="34.025" width="4.837" height="4.836" fill="#6b7280" data-fill-palette-color="accent"></rect><rect x="27.863" y="34.025" width="4.837" height="4.836" fill="#6b7280" data-fill-palette-color="accent"></rect><rect x="6.027" y="41.29" width="4.837" height="4.837" fill="#6b7280" data-fill-palette-color="accent"></rect><rect x="13.282" y="41.29" width="4.837" height="4.837" fill="#6b7280" data-fill-palette-color="accent"></rect><rect x="20.538" y="41.29" width="4.836" height="4.837" fill="#6b7280" data-fill-palette-color="accent"></rect><rect x="27.792" y="41.29" width="4.837" height="4.837" fill="#6b7280" data-fill-palette-color="accent"></rect><rect x="6.098" y="48.545" width="4.837" height="4.836" fill="#6b7280" data-fill-palette-color="accent"></rect><rect x="13.353" y="48.545" width="4.837" height="4.836" fill="#6b7280" data-fill-palette-color="accent"></rect><rect x="20.608" y="48.545" width="4.837" height="4.836" fill="#6b7280" data-fill-palette-color="accent"></rect><path d="M12.841 23.177V17.486A1.935 1.935 0 0 0 8.973 17.486V23.177z" fill="#6b7280" data-fill-palette-color="accent"></path><path d="M29.769 23.177V17.486A1.934 1.934 0 0 0 25.901 17.486V23.177z" fill="#6b7280" data-fill-palette-color="accent"></path><path d="M25.445 55.944H5.227C4.427 55.944 3.776 55.294 3.776 54.493V31.848C3.776 31.808 3.779 31.767 3.782 31.728H34.947C34.95 31.768 34.953 31.808 34.953 31.848V40.618L37.855 37.972V23.173H0.873V54.493A4.36 4.36 0 0 0 5.227 58.847H25.445zM25.904 26.623V23.177H29.766V26.692H29.763A1.93 1.93 0 0 1 25.907 26.692H25.904zM8.973 26.623V23.177H12.835V26.692H12.832A1.93 1.93 0 0 1 8.977 26.692H8.973z" fill="#6b7280" data-fill-palette-color="accent"></path></svg></g></svg></g></svg></g><defs></defs></svg><rect width="395.52" height="102.55003022106098" fill="none" stroke="none" visibility="hidden"></rect></g></svg></g></svg>